<svg width="32" height="53" viewBox="0 0 32 53" fill="none" xmlns="http://www.w3.org/2000/svg">
<path d="M15.9616 0.94043C11.2588 0.94043 0.759766 4.31978 0.759766 28.7494C0.759766 44.307 6.27344 52.0544 15.6791 52.0544C29.2959 52.0544 31.6238 38.9293 31.6238 25.9717C31.6238 8.09146 24.5303 0.94043 15.9616 0.94043ZM16.2441 3.05383C21.47 3.05383 24.3053 6.73659 25.7125 12.8675C25.927 14.2329 25.9427 15.2373 24.8285 16.7386L9.10351 35.9214C8.40253 36.6537 7.79048 37.2501 7.24644 37.5849C6.80179 37.8569 6.29436 37.7157 6.17404 37.6634C5.95957 37.5744 5.80263 37.5797 5.55154 37.1507C5.0598 36.3085 5.15396 29.8427 5.15396 26.636C5.15396 14.1806 7.47138 3.05383 16.2441 3.05383ZM15.9616 49.9462C12.2841 49.9462 9.32845 47.5555 8.25606 45.5991C7.05289 43.9094 7.7434 41.5868 8.29268 40.2999C8.37638 40.1011 8.5647 39.7558 8.63794 39.6408C8.72164 39.5047 8.99365 39.1386 9.0512 39.0653C9.16105 38.9293 23.1283 21.8913 23.1283 21.8913C23.8293 21.159 24.4204 20.526 24.9854 20.2278C25.6916 19.8564 26.5548 20.2069 26.7902 20.8713C26.9889 21.4205 26.9105 24.7842 26.9105 26.9185C26.9157 41.9216 24.1798 49.9462 15.9616 49.9462Z" fill="white"/>
</svg>
