<?xml version="1.0" encoding="UTF-8"?>
<svg xmlns="http://www.w3.org/2000/svg" xmlns:xlink="http://www.w3.org/1999/xlink" width="16pt" height="16pt" viewBox="0 0 16 16" version="1.1">
<g id="surface1">
<path style=" stroke:none;fill-rule:nonzero;fill:rgb(0%,0%,0%);fill-opacity:1;" d="M 4.289062 0 L 0.578125 0 C 0.324219 0 0.117188 0.207031 0.117188 0.464844 L 0.117188 4.175781 C 0.117188 4.429688 0.324219 4.636719 0.578125 4.636719 L 4.289062 4.636719 C 4.546875 4.636719 4.753906 4.429688 4.753906 4.175781 L 4.753906 0.464844 C 4.753906 0.207031 4.546875 0 4.289062 0 Z M 4.289062 0 "/>
<path style=" stroke:none;fill-rule:nonzero;fill:rgb(0%,0%,0%);fill-opacity:1;" d="M 9.855469 0 L 6.144531 0 C 5.890625 0 5.679688 0.207031 5.679688 0.464844 L 5.679688 4.175781 C 5.679688 4.429688 5.890625 4.636719 6.144531 4.636719 L 9.855469 4.636719 C 10.109375 4.636719 10.320312 4.429688 10.320312 4.175781 L 10.320312 0.464844 C 10.320312 0.207031 10.109375 0 9.855469 0 Z M 9.855469 0 "/>
<path style=" stroke:none;fill-rule:nonzero;fill:rgb(0%,0%,0%);fill-opacity:1;" d="M 4.289062 5.566406 L 0.578125 5.566406 C 0.324219 5.566406 0.117188 5.773438 0.117188 6.027344 L 0.117188 9.738281 C 0.117188 9.996094 0.324219 10.203125 0.578125 10.203125 L 4.289062 10.203125 C 4.546875 10.203125 4.753906 9.996094 4.753906 9.738281 L 4.753906 6.027344 C 4.753906 5.773438 4.546875 5.566406 4.289062 5.566406 Z M 4.289062 5.566406 "/>
<path style=" stroke:none;fill-rule:nonzero;fill:rgb(0%,0%,0%);fill-opacity:1;" d="M 9.855469 5.566406 L 6.144531 5.566406 C 5.890625 5.566406 5.679688 5.773438 5.679688 6.027344 L 5.679688 9.738281 C 5.679688 9.996094 5.890625 10.203125 6.144531 10.203125 L 9.855469 10.203125 C 10.109375 10.203125 10.320312 9.996094 10.320312 9.738281 L 10.320312 6.027344 C 10.320312 5.773438 10.109375 5.566406 9.855469 5.566406 Z M 9.855469 5.566406 "/>
<path style=" stroke:none;fill-rule:nonzero;fill:rgb(0%,0%,0%);fill-opacity:1;" d="M 15.421875 0 L 11.710938 0 C 11.453125 0 11.246094 0.207031 11.246094 0.464844 L 11.246094 4.175781 C 11.246094 4.429688 11.453125 4.636719 11.710938 4.636719 L 15.421875 4.636719 C 15.675781 4.636719 15.882812 4.429688 15.882812 4.175781 L 15.882812 0.464844 C 15.882812 0.207031 15.675781 0 15.421875 0 Z M 15.421875 0 "/>
<path style=" stroke:none;fill-rule:nonzero;fill:rgb(0%,0%,0%);fill-opacity:1;" d="M 15.421875 5.566406 L 11.710938 5.566406 C 11.453125 5.566406 11.246094 5.773438 11.246094 6.027344 L 11.246094 9.738281 C 11.246094 9.996094 11.453125 10.203125 11.710938 10.203125 L 15.421875 10.203125 C 15.675781 10.203125 15.882812 9.996094 15.882812 9.738281 L 15.882812 6.027344 C 15.882812 5.773438 15.675781 5.566406 15.421875 5.566406 Z M 15.421875 5.566406 "/>
<path style=" stroke:none;fill-rule:nonzero;fill:rgb(0%,0%,0%);fill-opacity:1;" d="M 4.289062 11.363281 L 0.578125 11.363281 C 0.324219 11.363281 0.117188 11.570312 0.117188 11.824219 L 0.117188 15.535156 C 0.117188 15.792969 0.324219 16 0.578125 16 L 4.289062 16 C 4.546875 16 4.753906 15.792969 4.753906 15.535156 L 4.753906 11.824219 C 4.753906 11.570312 4.546875 11.363281 4.289062 11.363281 Z M 4.289062 11.363281 "/>
<path style=" stroke:none;fill-rule:nonzero;fill:rgb(0%,0%,0%);fill-opacity:1;" d="M 9.855469 11.363281 L 6.144531 11.363281 C 5.890625 11.363281 5.679688 11.570312 5.679688 11.824219 L 5.679688 15.535156 C 5.679688 15.792969 5.890625 16 6.144531 16 L 9.855469 16 C 10.109375 16 10.320312 15.792969 10.320312 15.535156 L 10.320312 11.824219 C 10.320312 11.570312 10.109375 11.363281 9.855469 11.363281 Z M 9.855469 11.363281 "/>
<path style=" stroke:none;fill-rule:nonzero;fill:rgb(0%,0%,0%);fill-opacity:1;" d="M 15.421875 11.363281 L 11.710938 11.363281 C 11.453125 11.363281 11.246094 11.570312 11.246094 11.824219 L 11.246094 15.535156 C 11.246094 15.792969 11.453125 16 11.710938 16 L 15.421875 16 C 15.675781 16 15.882812 15.792969 15.882812 15.535156 L 15.882812 11.824219 C 15.882812 11.570312 15.675781 11.363281 15.421875 11.363281 Z M 15.421875 11.363281 "/>
</g>
</svg>
