<svg width="20" height="20" viewBox="0 0 20 20" fill="none" xmlns="http://www.w3.org/2000/svg">
<g clip-path="url(#clip0_2397_576)">
<path d="M10.4666 0C5.0083 0 2.2583 3.9125 2.2583 7.175C2.2583 9.15 3.0083 10.9083 4.61247 11.5625C4.87497 11.6708 5.11247 11.5667 5.18747 11.275C5.24163 11.075 5.36663 10.5667 5.4208 10.3542C5.4958 10.0667 5.46663 9.96667 5.25413 9.7125C4.79163 9.16667 4.4958 8.45833 4.4958 7.45833C4.4958 4.55417 6.66663 1.95417 10.15 1.95417C13.2333 1.95417 14.9291 3.8375 14.9291 6.35833C14.9291 9.67083 13.4625 12.4667 11.2875 12.4667C10.0875 12.4667 9.18747 11.4708 9.47497 10.2542C9.8208 8.8 10.4875 7.22917 10.4875 6.17917C10.4875 5.2375 9.9833 4.45417 8.93747 4.45417C7.7083 4.45417 6.7208 5.725 6.7208 7.42917C6.7208 8.5125 7.08747 9.24583 7.08747 9.24583C7.08747 9.24583 5.82913 14.5708 5.6083 15.5042C5.1708 17.3625 5.54163 19.6417 5.57497 19.8708C5.59163 20.0083 5.76663 20.0375 5.84997 19.9375C5.96247 19.7917 7.42497 17.9833 7.92497 16.1792C8.06663 15.6667 8.7333 13.0208 8.7333 13.0208C9.1333 13.7833 10.3 14.4542 11.5375 14.4542C15.2291 14.4542 17.7375 11.0875 17.7375 6.57917C17.7416 3.175 14.8541 0 10.4666 0Z" fill="#B6B6C4"/>
</g>
<defs>
<clipPath id="clip0_2397_576">
<rect width="20" height="20" fill="white"/>
</clipPath>
</defs>
</svg>
