<svg width="22" height="22" viewBox="0 0 22 22" fill="none" xmlns="http://www.w3.org/2000/svg">
<path fill-rule="evenodd" clip-rule="evenodd" d="M1.04762 4.37049V17.8105C1.04762 18.0998 1.28214 18.3343 1.57143 18.3343H20.4286C20.7179 18.3343 20.9524 18.0998 20.9524 17.8105V4.37049L12.0478 12.3377C11.4512 12.8715 10.5488 12.8715 9.95218 12.3377L1.04762 4.37049ZM20.1668 3.66761H1.83318L10.6507 11.557C10.8496 11.7349 11.1504 11.7349 11.3493 11.557L20.1668 3.66761ZM1.57143 2.62C0.703553 2.62 0 3.32355 0 4.19142V17.8105C0 18.6783 0.703553 19.3819 1.57143 19.3819H20.4286C21.2964 19.3819 22 18.6783 22 17.8105V4.19142C22 3.32355 21.2964 2.62 20.4286 2.62H1.57143Z" fill="#202125"/>
</svg>
