<svg width="206" height="48" viewBox="0 0 206 48" fill="none" xmlns="http://www.w3.org/2000/svg">
<g clip-path="url(#clip0_4050_783)">
<path d="M0 1.49023H8.1194C14.6866 1.49023 19.8782 2.56486 24.8358 7.16426C29.5546 11.5822 32 17.6144 32 24.0622C32 30.2711 29.6119 36.184 25.0746 40.5398C20.117 45.3159 14.806 46.5099 8.1194 46.5099H0V1.49023ZM8.06209 43.821C13.9749 43.821 18.8657 42.6269 23.1642 38.3858C26.9851 34.5649 29.1343 29.4305 29.1343 24.0574C29.1343 18.3261 26.8657 12.9529 22.6293 9.06994C18.3307 5.19173 13.674 4.17441 8.06209 4.17441H2.86567V43.8162H8.06209V43.821Z" fill="white"/>
<path d="M35.0713 24.9028H46.2761V27.1381H37.4785V33.5572H46.0182V35.7924H37.4785V44.2748H46.2761V46.51H35.0713V24.9028Z" fill="white"/>
<path d="M58.6558 39.938H58.7752L72.091 1.49023H74.9567L58.5985 48.0001L42.417 1.49023H45.2827L58.6558 39.938Z" fill="white"/>
<path d="M74.2355 31.7039L68.2033 46.5098H65.2803L84.1459 0L102.954 46.5098H100.031L94.0039 31.7039H74.2355ZM84.1459 7.28358L75.3101 29.0149H92.9245L84.1459 7.28358Z" fill="white"/>
<path d="M144.86 48L107.071 7.82332V46.5099H104.206V0.897949L141.994 40.7785V1.49019H144.86V48Z" fill="white"/>
<path d="M152.621 4.17919V20.5374H170.77V23.2216H152.621V43.8162H171.248V46.5004H149.755V1.49023H171.248V4.17441H152.621V4.17919Z" fill="white"/>
<path d="M173.039 1.49023H176.201L189.455 24.2962L202.708 1.49023H205.87L190.883 27.2813V46.5052H188.017V27.2813L173.039 1.49023Z" fill="white"/>
</g>
<defs>
<clipPath id="clip0_4050_783">
<rect width="205.875" height="48" fill="white"/>
</clipPath>
</defs>
</svg>
