<svg width="151" height="48" viewBox="0 0 151 48" fill="none" xmlns="http://www.w3.org/2000/svg">
<g clip-path="url(#clip0_4050_792)">
<path d="M9.24214 32.7197L3.02157 48H0L19.4701 0L38.8811 48H35.8645L29.6439 32.7197H9.24214ZM19.4701 7.51694L10.3512 29.9445H28.5299L19.4701 7.51694Z" fill="white"/>
<path d="M45.5996 45.2251H57.4295V47.9953H42.6421V1.53809H45.5996V45.2251Z" fill="white"/>
<path d="M64.1089 4.31319V21.1955H79.4483V23.9657H64.1089V47.9953H61.1514V1.53809H79.8821V4.30826H64.1089V4.31319Z" fill="white"/>
<path d="M107.825 48.0002H104.434L89.277 26.0064H87.7983V48.0002H84.8408V1.53809H90.6326C94.3886 1.53809 98.0854 1.59724 101.23 3.87943C104.557 6.22077 105.913 9.91763 105.913 13.8609C105.913 21.9349 100.304 26.1247 92.6042 25.9965L107.825 48.0002ZM91.5592 23.2263C94.4576 23.2263 97.351 23.1031 99.6923 21.0674C101.91 19.283 102.955 16.5079 102.955 13.7328C102.955 10.2824 101.353 6.83199 98.0263 5.35324C95.5617 4.18011 92.4169 4.30826 89.7059 4.30826H87.7934V23.2263H91.5592Z" fill="white"/>
<path d="M111.138 25.7007H122.701V28.0075H113.622V34.6323H122.435V36.9391H113.622V45.6933H122.701V48.0001H111.138V25.7007Z" fill="white"/>
<path d="M116.402 1.53809H119.665L133.343 25.0747L147.022 1.53809H150.285L134.817 28.1555V47.9953H131.86V28.1555L116.402 1.53809Z" fill="white"/>
</g>
<defs>
<clipPath id="clip0_4050_792">
<rect width="150.29" height="48" fill="white"/>
</clipPath>
</defs>
</svg>
