<svg width="189" height="48" viewBox="0 0 189 48" fill="none" xmlns="http://www.w3.org/2000/svg">
<g clip-path="url(#clip0_4050_800)">
<path d="M30.209 20.5947V1.49023H33.0746V46.5052H30.209V23.2837H2.86567V46.5052H0V1.49023H2.86567V20.5947H30.209Z" fill="white"/>
<path d="M45.6785 31.7039L39.651 46.5098H36.728L55.5889 0L74.3973 46.5098H71.4695L65.4421 31.7039H45.6785ZM55.5889 7.28358L46.7531 29.0149H64.3674L55.5889 7.28358Z" fill="white"/>
<path d="M66.8701 1.49023H70.0319L83.2856 24.2962L96.5394 1.49023H99.7012L84.7137 27.2813V46.5052H81.848V27.2813L66.8701 1.49023Z" fill="white"/>
<path d="M115.405 46.5099H112.54V4.17919H100.896V1.49023H127.045V4.17441H115.401V46.5099H115.405Z" fill="white"/>
<path d="M143.857 35.735C143.857 41.9536 138.756 46.8825 132.595 46.8825C126.433 46.8825 121.333 41.9536 121.333 35.735C121.333 29.5452 126.433 24.5303 132.595 24.5303C138.756 24.5303 143.857 29.5452 143.857 35.735ZM123.74 35.7064C123.74 40.578 127.694 44.6473 132.595 44.6473C137.495 44.6473 141.45 40.578 141.45 35.7064C141.45 30.8061 137.552 26.7655 132.595 26.7655C127.637 26.7655 123.74 30.8061 123.74 35.7064Z" fill="white"/>
<path d="M188.661 48L150.873 7.82332V46.5099H148.007V0.897949L185.795 40.7785V1.49019H188.661V48Z" fill="white"/>
</g>
<defs>
<clipPath id="clip0_4050_800">
<rect width="188.661" height="48" fill="white"/>
</clipPath>
</defs>
</svg>
