<svg width="168" height="33" viewBox="0 0 168 33" fill="none" xmlns="http://www.w3.org/2000/svg">
<path fill-rule="evenodd" clip-rule="evenodd" d="M7.87017 0C12.1851 0 16 2.86449 16 6.99977C16 10.6801 13.0233 14 8.12959 14C3.81513 14 0 11.1351 0 6.99977C0 3.31993 2.97673 0 7.87017 0ZM44 31.6421H42.4V26H42V32H44V31.6421ZM50.9999 32C52.6262 32 54 30.6431 54 29C54 27.3569 52.6262 26 50.9999 26C49.3656 26 48 27.3569 48 29C48 30.6431 49.3736 32 50.9999 32ZM48.3683 29C48.3683 30.4421 49.5572 31.6507 50.9999 31.6507C52.4346 31.6507 53.6315 30.4338 53.6315 29C53.6315 27.5579 52.4346 26.3493 50.9999 26.3493C49.5572 26.3493 48.3683 27.5579 48.3683 29ZM61.0439 26.3493C61.6638 26.3493 62.083 26.6199 62.3798 27.0391L62.6766 26.822C62.3624 26.3176 61.7334 26 61.0703 26C60.0831 26 59.3845 26.6128 59.3845 27.4809C59.3845 27.9453 59.629 28.2866 60.0658 28.5273L61.2529 29.085L61.3207 29.1144L61.3713 29.1362C61.9208 29.3728 62.5808 29.6569 62.5808 30.271C62.5808 31.0459 61.8209 31.6507 60.9561 31.6507C60.1615 31.6507 59.6466 31.217 59.3669 30.5969L59 30.7444C59.3058 31.4959 60.0221 32 60.9388 32C62.0046 32 63 31.2715 63 30.3018C63 29.7749 62.7469 29.4182 62.2483 29.1394L60.9908 28.5583L60.941 28.5374C60.4184 28.3173 59.8037 28.0584 59.8037 27.4653C59.8037 26.8528 60.3362 26.3493 61.0439 26.3493ZM72.3469 30.0133L71.5593 31.8182H71.1776L73.6419 26.1489L76.0979 31.8182H75.7155L74.9279 30.0133H72.3469ZM72.4871 29.6856L73.6419 27.0362L74.7876 29.6856H72.4871ZM85.8869 32L80.951 27.1018V31.8182H80.5769V26.2578L85.5126 31.1193V26.3307H85.8869V32ZM96.3687 31.0542C96.9028 30.4883 97.0146 29.8445 96.9986 29.1086H94.4621V29.4573H96.6159C96.5923 30.0925 96.4006 30.5815 95.8818 31.0078C95.3878 31.3953 94.7573 31.6507 94.1116 31.6507C92.6119 31.6507 91.3831 30.4421 91.3831 29C91.3831 27.5967 92.6433 26.3493 94.1116 26.3493C95.0844 26.3493 95.8984 26.8291 96.4323 27.6047L96.7433 27.3643C96.1137 26.5276 95.2278 26 94.1349 26C92.4124 26 91 27.3486 91 29.0234C91 30.6357 92.42 32 94.0874 32C94.9333 32 95.7941 31.6587 96.3687 31.0542ZM101.4 26.3579V28.5381H103.934V28.8967H101.4V31.6421H104V32H101V26H104V26.3579H101.4ZM111 31.6421H109.4V26H109V32H111V31.6421ZM115.4 26.3579V28.5381H117.934V28.8967H115.4V31.6421H118V32H115V26H118V26.3579H115.4ZM124.044 26.3493C124.664 26.3493 125.083 26.6199 125.38 27.0391L125.677 26.822C125.363 26.3176 124.733 26 124.069 26C123.083 26 122.385 26.6128 122.385 27.4809C122.385 27.9453 122.629 28.2866 123.066 28.5273L124.253 29.085C124.292 29.1019 124.332 29.119 124.372 29.1363C124.921 29.3729 125.581 29.657 125.581 30.271C125.581 31.0459 124.821 31.6507 123.956 31.6507C123.162 31.6507 122.647 31.217 122.367 30.5969L122 30.7444C122.306 31.4959 123.022 32 123.939 32C125.005 32 126 31.2715 126 30.3018C126 29.7749 125.746 29.4182 125.249 29.1394L123.991 28.5583L123.94 28.5371C123.418 28.3171 122.804 28.0582 122.804 27.4653C122.804 26.8528 123.336 26.3493 124.044 26.3493ZM13.0432 7.83441C13.0432 12.5393 9.92742 13.2791 8.64889 13.2791C5.15334 13.2791 2.95652 9.84566 2.95652 6.16559C2.95652 1.4605 6.07258 0.720718 7.35063 0.720718C10.8464 0.720718 13.0432 4.15434 13.0432 7.83441ZM17 13.4094C18.2479 13.3901 18.5932 12.9178 18.5932 11.8166V2.18249C18.5932 1.08172 18.2479 0.609422 17 0.5899V0L17.6407 0.016523C18.7327 0.0448178 19.2815 0.059037 19.803 0.059037C20.3241 0.059037 20.8727 0.0448208 21.9645 0.0165319L22.6056 0V0.5899C21.3579 0.609422 21.0123 1.08172 21.0123 2.18249V11.8166C21.0123 12.8395 21.569 13.1735 23.1622 13.1735C25.6963 13.1735 26.9634 12.8395 27.3473 10.4016H28L27.6929 14L27.5435 13.9984C25.5695 13.9778 21.995 13.9405 18.4205 13.9405C17.8448 13.9405 17.3455 13.9602 17 14V13.4094ZM30.7056 11.8166C30.7056 12.9178 30.336 13.3901 29 13.4094V14L29.6472 13.9842C30.8421 13.955 31.4365 13.9405 32 13.9405C32.564 13.9405 33.1579 13.955 34.352 13.9842L35 14V13.4094C33.6645 13.3901 33.2949 12.9178 33.2949 11.8166V2.18249C33.2949 1.08172 33.6645 0.609422 35 0.5899V0.584187C35.9049 0.623087 36.3475 0.79825 36.8867 1.98596L42.4132 14H42.9136L47.458 2.84291C48.305 0.778683 48.5557 0.603521 50 0.584187V0.5899C51.2929 0.609422 51.6509 1.08172 51.6509 2.18249V11.8166C51.6509 12.9178 51.2929 13.3901 50 13.4094V14C50.3978 13.9798 51.5915 13.9405 53.123 13.9405C55.6019 13.9405 57.7049 13.9652 59.4318 13.9856L59.4322 13.9856C59.8806 13.9909 60.3037 13.9958 60.7014 14C60.7014 12.9966 60.8809 11.345 61 10.4016H60.3237C59.8464 12.8788 58.4339 13.2523 56.4044 13.2523C54.535 13.2523 54.1573 12.7607 54.1573 11.8561V7.17664H55.6687C57.3999 7.17664 57.8971 7.56991 57.8971 9.12321H58.5734L58.5716 9.05224L58.5716 9.05176C58.5521 8.29117 58.5334 7.56095 58.5334 6.6653C58.5334 6.06423 58.5516 5.37293 58.5708 4.64376V4.64361V4.64346V4.64331V4.64316V4.64302V4.64288V4.64276V4.64263V4.64251V4.64239V4.64228L58.5708 4.64162L58.5734 4.54209H57.8971C57.7577 5.78069 57.4993 6.42962 55.6888 6.42962H54.1573V0.747018H55.8877C58.2748 0.747018 59.1298 1.41571 59.4483 3.30348H60.0853L60.005 0C59.6178 0.00413682 59.2043 0.00912949 58.7647 0.0144383C57.1047 0.0344841 55.0715 0.059037 52.6653 0.059037C51.8506 0.059037 51.0616 0.0337013 50.4321 0.0134906C50.2778 0.00853621 50.1331 0.00388976 50 0C48.9023 0.0388992 48.2864 0.0584653 47.7468 0.0584653C47.2077 0.0584653 46.5914 0.0388992 45.4749 0V0.584187C46.3028 0.584187 46.8229 0.720684 46.8229 1.3242C46.8229 1.65516 46.6852 2.07248 46.5242 2.56048L46.4953 2.64794L43.5877 10.9626L40.1413 3.19346C39.4672 1.67476 39.4094 1.51847 39.4094 1.3242C39.4094 0.856715 39.7175 0.584187 40.4108 0.584187H41.181V0C39.833 0.0388992 38.9663 0.0584653 38.0806 0.0584653C37.2142 0.0584653 36.3285 0.0388992 35 0L34.3141 0.0165273C33.1453 0.0448192 32.558 0.059037 32 0.059037C31.4425 0.059037 30.8548 0.0448123 29.6852 0.0165067L29 0V0.5899C30.336 0.609422 30.7056 1.08172 30.7056 2.18249V11.8166ZM62 13.1693C63.2785 13.1504 63.6323 12.6866 63.6323 11.605V2.14342C63.6323 1.06235 63.2785 0.598512 62 0.579339V0C62.3599 0.00755339 62.6989 0.0180121 63.0217 0.0279697C63.5281 0.0435917 63.9945 0.0579801 64.4388 0.0579801C65.0779 0.0579801 65.7219 0.0434864 66.366 0.0289921C67.0101 0.0144964 67.6542 0 68.2935 0C71.7158 0 72.7977 1.68004 72.7977 3.57236C72.7977 4.88557 71.9712 6.35309 70.0632 6.93243L72.5219 11.374C73.4066 12.9765 73.8788 13.3435 75 13.4978V13.9617L74.9631 13.964C74.6804 13.982 74.3967 14 74.0951 14C71.4798 14 70.3977 13.1114 69.2962 10.8139L68.5297 9.21098C67.7035 7.4926 67.4282 7.35747 66.1104 7.33783V11.605C66.1104 12.6866 66.4646 13.1504 67.7431 13.1693V13.7494L67.1225 13.7339L67.1224 13.7339C65.9796 13.7052 65.4111 13.6909 64.8712 13.6909C64.3317 13.6909 63.763 13.7052 62.6197 13.7339L62 13.7494V13.1693ZM67.4085 6.75849C67.015 6.75849 66.4843 6.70074 66.1104 6.62336V0.656492C66.3862 0.598512 66.6018 0.579339 66.9565 0.579339C69.5128 0.579339 70.2407 2.68418 70.2407 4.09349C70.2407 5.96687 69.1785 6.75849 67.4085 6.75849ZM81 13.4094C82.3023 13.3901 82.6632 12.9178 82.6632 11.8166V2.18249C82.6632 1.08172 82.3023 0.609422 81 0.5899V0C81.6812 0.0392796 82.6632 0.059037 83.5042 0.059037C84.0356 0.059037 84.5667 0.0442744 85.0978 0.0295134C85.6287 0.0147559 86.1596 0 86.6906 0C90.6173 0 92 1.71066 92 3.97171C92 6.25251 90.4768 7.62918 86.7905 7.62918C86.2097 7.62918 85.5082 7.60919 85.1872 7.56991V11.8166C85.1872 12.9178 85.5483 13.3901 86.8506 13.4094V14L86.2164 13.9842C85.0535 13.955 84.475 13.9405 83.9252 13.9405C83.3754 13.9405 82.7963 13.955 81.6327 13.9842L81.6323 13.9842L81.6322 13.9842L81.6318 13.9842L81.6315 13.9842L81.6314 13.9842L81 14V13.4094ZM86.5098 6.88169C86.1091 6.88169 85.5683 6.82289 85.1872 6.74409V0.668459C85.4682 0.609422 85.6883 0.5899 86.0492 0.5899C88.6541 0.5899 89.3956 2.71335 89.3956 4.16811C89.3956 6.07564 88.3135 6.88169 86.5098 6.88169ZM93 13.4094C94.2931 13.3901 94.6512 12.9178 94.6512 11.8166V2.18249C94.6512 1.08172 94.2931 0.609422 93 0.5899V0C93.1328 0.00388169 93.2772 0.00851693 93.4311 0.0134598L93.4314 0.013468C94.0609 0.0336824 94.8506 0.059037 95.6656 0.059037C98.0716 0.059037 100.104 0.0344938 101.764 0.01445C102.204 0.00913687 102.618 0.00413987 103.005 0L103.085 3.30348H102.449C102.131 1.41571 101.275 0.747018 98.8876 0.747018H97.1579V6.42962H98.689C100.5 6.42962 100.758 5.78069 100.897 4.54209H101.573L101.571 4.612C101.552 5.35285 101.534 6.05551 101.534 6.6653C101.534 7.56988 101.553 8.30572 101.572 9.07453L101.573 9.12321H100.897C100.897 7.56991 100.4 7.17664 98.6693 7.17664H97.1579V11.8561C97.1579 12.7607 97.5351 13.2523 99.4053 13.2523C101.435 13.2523 102.847 12.8788 103.324 10.4016H104C103.881 11.345 103.702 12.9966 103.702 14C103.306 13.9958 102.885 13.9909 102.439 13.9856L102.432 13.9856L102.431 13.9856L102.431 13.9856L102.431 13.9856C100.704 13.9652 98.6021 13.9405 96.1235 13.9405C94.5915 13.9405 93.3983 13.9798 93 14V13.4094ZM122 6.99977C122 2.86449 118.185 0 113.87 0C108.976 0 106 3.31993 106 6.99977C106 11.1351 109.815 14 114.13 14C119.024 14 122 10.6801 122 6.99977ZM114.649 13.2791C115.928 13.2791 119.044 12.5393 119.044 7.83441C119.044 4.15434 116.847 0.720718 113.351 0.720718C112.072 0.720718 108.956 1.4605 108.956 6.16559C108.956 9.84566 111.154 13.2791 114.649 13.2791ZM124.663 11.8166C124.663 12.9178 124.302 13.3901 123 13.4094V14L123.633 13.9842C124.796 13.955 125.375 13.9405 125.925 13.9405C126.475 13.9405 127.053 13.955 128.216 13.9842L128.85 14V13.4094C127.547 13.3901 127.187 12.9178 127.187 11.8166V7.56991C127.508 7.60919 128.21 7.62918 128.79 7.62918C132.478 7.62918 134 6.25251 134 3.97171C134 1.71066 132.618 0 128.69 0C128.159 0 127.628 0.0147593 127.098 0.0295186L127.098 0.0295191C126.567 0.0442782 126.036 0.059037 125.505 0.059037C124.663 0.059037 123.681 0.0392796 123 0V0.5899C124.302 0.609422 124.663 1.08172 124.663 2.18249V11.8166ZM127.187 6.74409C127.568 6.82289 128.11 6.88169 128.511 6.88169C130.314 6.88169 131.396 6.07564 131.396 4.16811C131.396 2.71335 130.654 0.5899 128.049 0.5899C127.688 0.5899 127.468 0.609422 127.187 0.668459V6.74409ZM135.594 11.8166C135.594 12.9178 135.248 13.3901 134 13.4094V14C134.346 13.9602 134.845 13.9405 135.421 13.9405C138.998 13.9405 142.576 13.9779 144.547 13.9985L144.548 13.9985L144.548 13.9985L144.692 14L145 10.4016H144.347C143.963 12.8395 142.696 13.1735 140.162 13.1735C138.569 13.1735 138.013 12.8395 138.013 11.8166V2.18249C138.013 1.08172 138.358 0.609422 139.606 0.5899V0L138.962 0.016603L138.962 0.0166045L138.962 0.0166072C137.872 0.044846 137.324 0.059037 136.803 0.059037C136.282 0.059037 135.733 0.0448205 134.641 0.016531L134.641 0.0165282L134 0V0.5899C135.248 0.609422 135.594 1.08172 135.594 2.18249V11.8166ZM146 13.4094C147.293 13.3901 147.65 12.9178 147.65 11.8166V2.18249C147.65 1.08172 147.293 0.609422 146 0.5899V0C146.133 0.00389257 146.278 0.00854291 146.432 0.0135013L146.433 0.0135061L146.433 0.0135073C147.062 0.0337152 147.85 0.059037 148.665 0.059037C151.071 0.059037 153.105 0.0344774 154.765 0.01443C155.205 0.00912433 155.618 0.00413468 156.005 0L156.084 3.30348H155.448C155.129 1.41571 154.275 0.747018 151.887 0.747018H150.157V6.42962H151.688C153.499 6.42962 153.757 5.78069 153.897 4.54209H154.572L154.567 4.76746V4.76784C154.549 5.4513 154.533 6.09843 154.533 6.6653C154.533 7.52157 154.55 8.22663 154.568 8.95159L154.568 8.95365L154.572 9.12321H153.897C153.897 7.56991 153.399 7.17664 151.669 7.17664H150.157V11.8561C150.157 12.7607 150.534 13.2523 152.404 13.2523C154.433 13.2523 155.846 12.8788 156.323 10.4016H157C156.88 11.345 156.702 12.9966 156.702 14C156.304 13.9958 155.88 13.9908 155.432 13.9856L155.431 13.9856L155.431 13.9856C153.704 13.9652 151.601 13.9405 149.122 13.9405C147.591 13.9405 146.398 13.9798 146 14V13.4094ZM159.737 10.0919H159L159.151 13.3744C160.493 13.7538 162.063 14 163.273 14C166.412 14 168 12.2168 168 9.97841C168 7.63993 165.857 6.51875 163.94 5.51588C162.389 4.70444 160.986 3.97044 160.986 2.73174C160.986 1.70739 161.893 0.720718 163.424 0.720718C165.429 0.720718 166.676 1.91617 166.885 3.85094H167.585L167.471 0.493338C166.412 0.11369 164.994 0 163.973 0C159.756 0 159.208 2.97841 159.208 3.9458C159.208 6.2235 161.227 7.2249 163.08 8.14452C164.654 8.9253 166.109 9.64714 166.109 11.0411C166.109 12.0838 165.202 13.2791 163.349 13.2791C162.044 13.2791 160.191 12.2924 159.737 10.0919Z" fill="#202125"/>
</svg>
