<?xml version="1.0" encoding="utf-8"?>
<!-- Generator: Adobe Illustrator 23.0.2, SVG Export Plug-In . SVG Version: 6.00 Build 0)  -->
<svg version="1.1" id="Layer_1" xmlns="http://www.w3.org/2000/svg" xmlns:xlink="http://www.w3.org/1999/xlink" x="0px" y="0px"
	 viewBox="0 0 286.5 61.1" style="enable-background:new 0 0 286.5 61.1;" xml:space="preserve" fill="white">
<g>
	<path d="M0,0v61.1h286.5V0H0z M74.9,51.6c-11.7,0-21.3-9.5-21.3-21.3c0-4.5,1.4-8.8,3.9-12.2c-1.6-0.6-3-1-4.5-1
		c-1.5,0-3.1,0.3-5.3,1.1c2.4,3.4,3.8,7.6,3.8,12.1c0,11.7-9.5,21.3-21.3,21.3C18.5,51.6,9,42.1,9,30.3C9,18.6,18.5,9.1,30.3,9.1
		c6.1,0,11.6,2.6,15.5,6.7c2.8-1.1,5.1-1.6,7.3-1.6c2.2,0,4.3,0.6,6.5,1.5c3.9-4.1,9.3-6.6,15.4-6.6c11.7,0,21.3,9.5,21.3,21.3
		C96.1,42.1,86.6,51.6,74.9,51.6z M162.8,52.8L145,17.4h-9.4l-18.1,35.4L95.4,9h42h2.5l-2.8,5.4h6.4L140.8,9h42h2.5L162.8,52.8z
		 M277.9,50v1.5H234V17.4h-2.4V50v1.5h-42.5V9h42.5v5.4h2.4V9h43.8V50z"/>
</g>
</svg>
